<?xml version="1.0" encoding="UTF-8" standalone="no"?>
<!DOCTYPE svg PUBLIC "-//W3C//DTD SVG 1.1//EN" "http://www.w3.org/Graphics/SVG/1.1/DTD/svg11.dtd">
<svg width="100%" height="100%" viewBox="0 0 100 100" version="1.1" xmlns="http://www.w3.org/2000/svg" xmlns:xlink="http://www.w3.org/1999/xlink" xml:space="preserve" xmlns:serif="http://www.serif.com/" style="fill-rule:evenodd;clip-rule:evenodd;stroke-linecap:round;stroke-linejoin:round;stroke-miterlimit:1.5;">
    <g transform="matrix(0.783373,-0.783373,1.47948,1.47948,-6.436702,24.423168)">
        <path d="M37.6,6.7L37.6,29.8C37.6,30 37.3,30.2 36.9,30.2L35.5,30.2C35.2,30.2 34.9,30 34.9,29.8L34.9,6.7C34.9,6.5 35.2,6.3 35.5,6.3L36.9,6.3C37.3,6.3 37.6,6.5 37.6,6.7Z" style="fill:none;stroke:rgb(250,250,250);stroke-width:3.7px;"/>
        <path d="M37.6,6.7L37.6,29.8C37.6,30 37.3,30.2 36.9,30.2L35.5,30.2C35.2,30.2 34.9,30 34.9,29.8L34.9,6.7C34.9,6.5 35.2,6.3 35.5,6.3L36.9,6.3C37.3,6.3 37.6,6.5 37.6,6.7Z" style="fill:rgb(37,37,37);"/>
    </g>
    <g transform="matrix(0.783373,0.783373,-1.47948,1.47948,49.698152,-32.315381)">
        <path d="M37.6,6.7L37.6,29.8C37.6,30 37.3,30.2 36.9,30.2L35.5,30.2C35.2,30.2 34.9,30 34.9,29.8L34.9,6.7C34.9,6.5 35.2,6.3 35.5,6.3L36.9,6.3C37.3,6.3 37.6,6.5 37.6,6.7Z" style="fill:none;stroke:rgb(250,250,250);stroke-width:3.7px;"/>
        <path d="M37.6,6.7L37.6,29.8C37.6,30 37.3,30.2 36.9,30.2L35.5,30.2C35.2,30.2 34.9,30 34.9,29.8L34.9,6.7C34.9,6.5 35.2,6.3 35.5,6.3L36.9,6.3C37.3,6.3 37.6,6.5 37.6,6.7Z" style="fill:rgb(37,37,37);"/>
    </g>
    <g transform="matrix(0.945371,0,0,1.123913,3.92,-3.043478)">
        <path d="M91.1,28.5L91.1,65.9C91.1,70.3 86.8,73.9 81.5,73.9L16,73.9C10.7,73.9 6.4,70.3 6.4,65.9L6.4,28.5C6.4,24.1 10.7,20.5 16,20.5L81.5,20.5C86.8,20.5 91.1,24.1 91.1,28.5Z" style="fill:rgb(37,37,37);stroke:rgb(250,250,250);stroke-width:6px;"/>
    </g>
    <g transform="matrix(0.783373,-0.783373,1.47948,1.47948,-6.436702,24.423168)">
        <path d="M37.6,6.7L37.6,29.8C37.6,30 37.3,30.2 36.9,30.2L35.5,30.2C35.2,30.2 34.9,30 34.9,29.8L34.9,6.7C34.9,6.5 35.2,6.3 35.5,6.3L36.9,6.3C37.3,6.3 37.6,6.5 37.6,6.7Z" style="fill:rgb(37,37,37);"/>
    </g>
    <g transform="matrix(0.783373,0.783373,-1.47948,1.47948,49.698152,-32.315381)">
        <path d="M37.6,6.7L37.6,29.8C37.6,30 37.3,30.2 36.9,30.2L35.5,30.2C35.2,30.2 34.9,30 34.9,29.8L34.9,6.7C34.9,6.5 35.2,6.3 35.5,6.3L36.9,6.3C37.3,6.3 37.6,6.5 37.6,6.7Z" style="fill:rgb(37,37,37);"/>
    </g>
    <g transform="matrix(0.945371,0,0,1.123913,3.92,-3.043478)">
        <path d="M91.1,28.5L91.1,65.9C91.1,70.3 86.8,73.9 81.5,73.9L16,73.9C10.7,73.9 6.4,70.3 6.4,65.9L6.4,28.5C6.4,24.1 10.7,20.5 16,20.5L81.5,20.5C86.8,20.5 91.1,24.1 91.1,28.5Z" style="fill:rgb(37,37,37);"/>
    </g>
    <g transform="matrix(1.023762,0,0,0.960859,-15.742574,-14.395235)">
        <ellipse cx="64.2" cy="67" rx="24.4" ry="26" style="fill:rgb(250,250,250);"/>
    </g>
    <g transform="matrix(0.982812,0,0,0.922425,-13.112871,-11.819425)">
        <ellipse cx="64.2" cy="67" rx="24.4" ry="26" style="fill:rgb(37,37,37);"/>
    </g>
    <g transform="matrix(0.283003,0,0,0.698841,36.047761,14.28069)">
        <rect x="47.5" y="16.1" width="3.5" height="70.1" style="fill:rgb(250,250,250);"/>
    </g>
    <g transform="matrix(0.245088,-0.141502,0.349421,0.605214,20.057352,26.042289)">
        <rect x="47.5" y="16.1" width="3.5" height="70.1" style="fill:rgb(250,250,250);"/>
    </g>
    <g transform="matrix(0.141502,-0.245088,0.605214,0.349421,12.090051,44.223338)">
        <rect x="47.5" y="16.1" width="3.5" height="70.1" style="fill:rgb(250,250,250);"/>
    </g>
    <g transform="matrix(0,-0.283003,0.698841,0,14.28069,63.952239)">
        <rect x="47.5" y="16.1" width="3.5" height="70.1" style="fill:rgb(250,250,250);"/>
    </g>
    <g transform="matrix(-0.141502,-0.245088,0.605214,-0.349421,26.042289,79.942648)">
        <rect x="47.5" y="16.1" width="3.5" height="70.1" style="fill:rgb(250,250,250);"/>
    </g>
    <g transform="matrix(-0.245088,-0.141502,0.349421,-0.605214,44.223338,87.909949)">
        <rect x="47.5" y="16.1" width="3.5" height="70.1" style="fill:rgb(250,250,250);"/>
    </g>
    <g transform="matrix(0.573307,0,0,0.538081,13.184158,13.938669)">
        <ellipse cx="64.2" cy="67" rx="24.4" ry="26" style="fill:rgb(250,250,250);"/>
    </g>
    <g transform="matrix(1.247517,0,0,1.247517,-14.215777,-17.051044)">
        <circle cx="51.5" cy="53.7" r="10.4" style="fill:rgb(37,37,37);"/>
    </g>
    <g transform="matrix(0,1.065064,-1.065064,0,108.811159,-3.948498)">
        <path d="M50.1,49.4C50.2,49.1 50.4,49 50.7,49C50.9,49 51.1,49.1 51.2,49.4C52.4,51.6 54.8,56.4 55.8,58.5C55.9,58.7 55.9,58.9 55.8,59.1C55.7,59.3 55.5,59.4 55.2,59.4C53.1,59.4 48.2,59.4 46.1,59.4C45.9,59.4 45.6,59.3 45.5,59.1C45.4,58.9 45.4,58.7 45.5,58.5C46.5,56.4 48.9,51.6 50.1,49.4Z" style="fill:rgb(250,250,250);"/>
    </g>
    <g transform="matrix(0.404959,0,0,-0.563659,29.830395,42.904951)">
        <path d="M49.1,22.9C49.2,22.7 49.5,22.5 49.8,22.5C50.1,22.5 50.4,22.7 50.5,22.9C51.8,25.4 54.4,30.7 55.3,32.7C55.4,32.8 55.4,33 55.2,33.1C55.1,33.3 54.9,33.4 54.6,33.4C52.4,33.4 47.2,33.4 45,33.4C44.8,33.4 44.5,33.3 44.4,33.1C44.3,33 44.2,32.8 44.3,32.7C45.2,30.7 47.8,25.4 49.1,22.9Z" style="fill:none;stroke:rgb(37,37,37);stroke-width:4.2px;stroke-miterlimit:5;"/>
        <path d="M49.1,22.9C49.2,22.7 49.5,22.5 49.8,22.5C50.1,22.5 50.4,22.7 50.5,22.9C51.8,25.4 54.4,30.7 55.3,32.7C55.4,32.8 55.4,33 55.2,33.1C55.1,33.3 54.9,33.4 54.6,33.4C52.4,33.4 47.2,33.4 45,33.4C44.8,33.4 44.5,33.3 44.4,33.1C44.3,33 44.2,32.8 44.3,32.7C45.2,30.7 47.8,25.4 49.1,22.9Z" style="fill:rgb(250,250,250);"/>
    </g>
</svg>
